<?xml version="1.0" standalone="no"?>
<!DOCTYPE svg PUBLIC "-//W3C//DTD SVG 20010904//EN"
 "http://www.w3.org/TR/2001/REC-SVG-20010904/DTD/svg10.dtd">
<svg version="1.0" xmlns="http://www.w3.org/2000/svg"
 width="1024.000000pt" height="1024.000000pt" viewBox="0 0 1024.000000 1024.000000"
 preserveAspectRatio="xMidYMid meet">

<g transform="translate(0.000000,1024.000000) scale(0.100000,-0.100000)"
fill="#000000" stroke="none">
<path d="M0 8340 l0 -1900 207 -2 207 -3 327 -985 c180 -542 335 -1007 344
-1034 14 -40 19 -46 26 -33 5 9 62 164 125 344 64 180 165 467 225 638 60 170
116 316 124 324 11 11 47 15 162 16 172 1 177 -1 208 -96 14 -44 130 -376 408
-1167 12 -34 25 -62 29 -62 3 0 29 69 57 153 466 1394 631 1881 643 1893 11
12 53 14 226 12 l211 -3 -89 -265 c-49 -146 -265 -797 -480 -1447 -215 -650
-396 -1185 -402 -1189 -6 -4 -72 -7 -146 -8 -107 -1 -140 2 -154 14 -19 16
-47 89 -223 585 -178 501 -276 769 -284 778 -4 4 -24 -38 -44 -95 -20 -57 -99
-281 -176 -498 -76 -217 -167 -476 -201 -575 -34 -99 -68 -186 -75 -194 -20
-21 -282 -22 -306 -1 -11 9 -201 567 -483 1415 l-464 1400 -1 -3177 -1 -3178
5120 0 5120 0 0 5120 0 5120 -5120 0 -5120 0 0 -1900z m6692 178 c138 -65 233
-141 359 -282 94 -105 99 -129 35 -159 -101 -48 -148 -52 -465 -39 -163 7
-338 9 -390 6 l-94 -7 209 -71 c115 -39 229 -83 254 -98 72 -43 145 -112 137
-131 -11 -30 -108 -74 -235 -107 -281 -72 -522 -175 -722 -308 -110 -73 -400
-314 -400 -333 0 -6 3 -9 8 -7 235 101 395 155 734 248 204 56 265 52 341 -18
35 -33 34 -55 -2 -82 -37 -26 -27 -22 -486 -202 -954 -376 -1068 -419 -1147
-431 -80 -11 -108 -4 -108 30 0 24 107 230 167 323 86 132 138 196 252 313
186 191 350 308 655 469 99 52 181 99 183 105 5 13 -166 51 -284 63 -54 5
-242 21 -418 35 -177 13 -335 30 -353 36 -72 25 -24 75 153 160 339 163 551
215 1043 258 117 10 215 21 218 24 4 3 -10 26 -30 50 -61 75 -50 94 90 157
118 53 182 52 296 -2z m1088 -367 c117 -40 288 -121 400 -190 244 -152 484
-399 660 -681 97 -155 234 -467 247 -561 4 -30 0 -42 -26 -71 -86 -98 -334
-133 -386 -54 -8 12 -33 71 -55 131 -118 316 -284 581 -494 791 -234 233 -455
358 -783 444 -24 6 -47 19 -53 30 -26 49 61 136 180 180 79 30 186 23 310 -19z
m-95 -1248 c151 -36 327 -148 507 -322 269 -259 471 -544 793 -1121 81 -146
167 -293 191 -326 94 -134 239 -237 389 -279 112 -30 352 -30 458 1 14 5 17
-1 17 -38 0 -72 -41 -140 -122 -203 -179 -140 -366 -176 -566 -110 -92 31
-169 76 -317 183 -60 44 -111 79 -112 78 -2 -1 -16 -54 -32 -117 -84 -334
-247 -600 -491 -804 -202 -169 -440 -284 -700 -341 -120 -27 -465 -27 -595 -1
-211 43 -429 135 -590 248 -115 82 -282 249 -364 364 -251 356 -344 819 -251
1246 28 128 65 230 131 359 147 285 405 543 678 679 162 81 360 142 509 157
47 4 71 11 69 18 -2 6 -32 21 -68 34 -215 76 -289 106 -282 113 4 4 71 32 148
63 77 30 179 71 227 91 132 54 234 62 373 28z m-3647 -1065 l2 -608 610 0 610
0 2 608 3 607 210 0 210 0 0 -1445 0 -1445 -207 -3 -208 -2 -2 627 -3 628
-612 3 -613 2 0 -630 0 -630 -205 0 -205 0 0 1450 0 1450 203 -2 202 -3 3
-607z m5576 -1643 c141 -37 295 -154 365 -277 40 -71 74 -171 92 -269 18 -98
18 -457 0 -559 -47 -270 -147 -542 -282 -767 -127 -213 -393 -579 -444 -611
-20 -13 -39 -22 -41 -19 -2 2 -22 93 -44 203 -78 386 -135 530 -404 1009 -114
203 -151 345 -143 544 3 98 10 144 30 206 88 272 327 464 670 539 84 19 132
19 201 1z"/>
<path d="M7380 6265 c-328 -54 -626 -248 -813 -530 -76 -116 -107 -178 -151
-303 -68 -196 -91 -413 -62 -579 82 -468 397 -849 826 -1001 140 -49 239 -66
390 -65 194 1 363 41 547 130 347 168 596 498 677 895 28 134 25 151 -55 311
-178 354 -362 613 -618 867 -144 143 -273 254 -314 269 -46 18 -334 22 -427 6z
m523 -875 c66 -25 149 -89 179 -137 l19 -32 -45 -22 c-69 -32 -106 -79 -106
-135 0 -92 43 -137 144 -150 41 -6 46 -9 46 -33 0 -39 -42 -121 -85 -164 -222
-226 -593 -138 -695 164 -73 216 61 459 289 525 65 19 183 12 254 -16z"/>
<path d="M9205 4036 c-60 -28 -87 -56 -114 -116 -51 -117 -39 -163 73 -280 97
-101 139 -165 174 -262 34 -97 41 -285 18 -513 -9 -88 -19 -221 -23 -295 -6
-149 5 -422 17 -399 12 22 67 307 89 464 33 228 44 413 37 635 -9 319 -42 511
-112 655 -33 68 -83 135 -101 135 -4 0 -30 -11 -58 -24z"/>
</g>
</svg>
