<?xml version="1.0" encoding="UTF-8"?>
<svg version="1.1" xmlns="http://www.w3.org/2000/svg" width="1024" height="1024">
<path d="M0 0 C1.65128906 0.87205078 1.65128906 0.87205078 3.3359375 1.76171875 C12.7438712 6.94938399 20.02117424 13.8996779 27.48828125 21.5234375 C29.09872842 23.15259427 29.09872842 23.15259427 31.5 24.9375 C34.37459516 27.30904101 36.62502972 29.95312574 39.03515625 32.78515625 C41.8262704 35.93140223 44.84719344 38.82200723 47.88671875 41.7265625 C50.28850516 44.3103697 52.06768888 47.04805608 54 50 C56.02250111 52.73915219 58.10626979 55.43031935 60.1875 58.125 C61.35180226 59.64304531 62.51586382 61.16127525 63.6796875 62.6796875 C65.23431003 64.70449718 66.7898159 66.72850588 68.35253906 68.74707031 C75.85730462 78.44248115 82.40884875 88.47128026 87.72143555 99.53295898 C88.91131645 101.82888156 90.20888959 103.87567635 91.68359375 105.99609375 C95.57648894 111.75819655 98.99310841 117.77517882 102.4375 123.8125 C103.70674495 126.02750783 104.97627492 128.24235236 106.24609375 130.45703125 C106.86709961 131.54338867 107.48810547 132.62974609 108.12792969 133.74902344 C109.9724621 136.95217858 111.84970744 140.13442636 113.73046875 143.31640625 C116.0141965 147.21984919 118.10685039 151.13236392 120.00195312 155.23632812 C123.59968854 163.01934859 127.83372542 168.96422859 134 175 C134.65871094 175.70511719 135.31742188 176.41023437 135.99609375 177.13671875 C148.97591825 190.84780097 165.64606899 197.06951772 184.265625 198.12890625 C190.7390148 198.28966924 197.00425007 197.40801266 203.38671875 196.4375 C206.96371732 196.00439315 210.40090838 195.92607771 214 196 C214.64955094 203.8523491 214.1197108 208.88769221 209 215 C208.5153125 215.58265625 208.030625 216.1653125 207.53125 216.765625 C197.24269645 227.9619921 182.51560252 235.36160839 167.3359375 236.203125 C145.23320724 236.46469577 128.30229173 227.92772874 111.44921875 213.95703125 C108.38381159 211.50763893 105.20657078 209.26139401 102 207 C101.86013672 207.59723877 101.72027344 208.19447754 101.57617188 208.80981445 C98.23710817 222.84649746 94.10900447 235.92876194 88 249 C87.50862549 250.07701172 87.50862549 250.07701172 87.00732422 251.17578125 C80.73779986 264.84565598 72.37023398 276.09473119 62 287 C61.47744629 287.55510254 60.95489258 288.11020508 60.41650391 288.68212891 C53.15537949 296.35390818 46.19305203 302.68506812 37 308 C35.35207843 309.08798691 33.70441128 310.17640598 32.06347656 311.27490234 C18.60466348 320.2111639 4.53154601 326.58517713 -11 331 C-12.04776611 331.31759277 -12.04776611 331.31759277 -13.11669922 331.64160156 C-37.13130693 338.69453033 -68.03001368 337.55405274 -92 331 C-92.74797852 330.80696289 -93.49595703 330.61392578 -94.26660156 330.41503906 C-112.34420403 325.61797592 -131.73428269 316.21211117 -146 304 C-146 303.34 -146 302.68 -146 302 C-147.05960938 301.65775391 -147.05960938 301.65775391 -148.140625 301.30859375 C-151.5557298 299.74567011 -154.04391719 297.60484456 -156.75 295.0625 C-157.27368164 294.57523438 -157.79736328 294.08796875 -158.33691406 293.5859375 C-163.39645411 288.78261577 -167.77628504 283.54958036 -172 278 C-172.66515625 277.15050781 -173.3303125 276.30101562 -174.015625 275.42578125 C-179.84807926 267.74485232 -184.52261173 259.51829537 -189 251 C-189.35626465 250.32694824 -189.7125293 249.65389648 -190.07958984 248.96044922 C-208.43189273 213.7731932 -211.27597769 171.08359367 -199.5378418 133.3203125 C-195.28575663 120.40154878 -189.79948206 108.41780412 -182.14453125 97.16796875 C-180.19529804 94.28850038 -178.40826918 91.35846467 -176.625 88.375 C-171.1478094 79.75890899 -163.88635687 72.2862432 -156.06640625 65.76171875 C-154.53433097 64.45554493 -153.04847553 63.0947409 -151.58984375 61.70703125 C-146.51544805 56.886729 -141.36538596 52.64961681 -135.5625 48.75 C-134.99072021 48.36223389 -134.41894043 47.97446777 -133.82983398 47.57495117 C-124.27516889 41.32731401 -114.00325047 36.97915148 -103.1875 33.4375 C-102.0327417 33.054729 -100.8779834 32.67195801 -99.68823242 32.27758789 C-88.62581281 28.70708929 -77.41633795 26.14480744 -66 24 C-66.78125244 23.71278076 -67.56250488 23.42556152 -68.36743164 23.12963867 C-71.29587676 22.05201777 -74.22369867 20.97272441 -77.15112305 19.89233398 C-79.02931643 19.19973668 -80.90820697 18.50903089 -82.78710938 17.81835938 C-88.58855305 15.67604729 -94.35358318 13.52536621 -100 11 C-100 10.34 -100 9.68 -100 9 C-98.71236616 8.38728535 -97.41953557 7.78549481 -96.125 7.1875 C-95.40570312 6.85105469 -94.68640625 6.51460938 -93.9453125 6.16796875 C-91.49110011 5.1947466 -89.14032906 4.45724762 -86.60546875 3.74609375 C-79.57977159 1.68650046 -72.91348017 -1.26284481 -66.1875 -4.125 C-63.6207387 -5.21635878 -61.05139765 -6.30131442 -58.48046875 -7.3828125 C-57.35535889 -7.86121582 -56.23024902 -8.33961914 -55.07104492 -8.83251953 C-36.16759356 -16.01880655 -16.72409148 -9.0492195 0 0 Z M-82 65 C-82.66870117 65.29390625 -83.33740234 65.5878125 -84.02636719 65.890625 C-99.578149 72.85168808 -111.36587214 82.69566388 -123 95 C-123.65613281 95.67546875 -124.31226563 96.3509375 -124.98828125 97.046875 C-146.03261628 119.68767683 -157.2887828 154.29725967 -156.28515625 184.9296875 C-155.11226001 197.55840588 -152.30698028 209.09499139 -148 221 C-147.55914219 222.51986337 -147.12114051 224.0405617 -146.6875 225.5625 C-136.94075404 254.47784635 -110.82210938 278.06113736 -84.60546875 291.8046875 C-77.38123517 295.38513938 -69.76547142 297.88214416 -62 300 C-61.37279053 300.19215088 -60.74558105 300.38430176 -60.09936523 300.58227539 C-52.01004197 302.77846731 -43.50696741 302.43976874 -35.1875 302.4375 C-34.3611908 302.4385675 -33.53488159 302.43963501 -32.68353271 302.44073486 C-19.82209915 302.41671113 -8.1741344 301.42695796 4 297 C5.2967305 296.57247813 6.59360239 296.14538485 7.890625 295.71875 C22.82738698 290.34401556 36.09944564 281.37958541 48 271 C48.83402344 270.35933594 49.66804687 269.71867188 50.52734375 269.05859375 C55.0241571 265.31480128 58.40256355 260.58761033 62 256 C62.77085937 255.02160156 63.54171875 254.04320312 64.3359375 253.03515625 C78.81031945 234.23821997 90.75714974 209.45366718 89 185 C83.61429277 165.12944547 70.13301037 146.04594848 58.4375 129.375 C55.89617783 125.74622336 53.40058146 122.09889367 51 118.375 C45.77672041 110.51122271 39.64422851 103.4505513 32.88671875 96.87890625 C31.06466476 95.06439699 29.36879911 93.1948757 27.6875 91.25 C27.11515625 90.59128906 26.5428125 89.93257812 25.953125 89.25390625 C24.50085232 87.57798357 23.05374501 85.89758201 21.609375 84.21484375 C15.24449009 76.94221718 8.34363328 70.99102511 0.60986328 65.21337891 C-2.38723096 62.95442253 -5.2989212 60.58518344 -8.23046875 58.2421875 C-13.47138528 54.56313351 -20.83521219 55.29438593 -27 55 C-28.02867187 54.94682617 -28.02867187 54.94682617 -29.078125 54.89257812 C-47.49516929 54.05699 -65.16601765 57.51444949 -82 65 Z " fill="#FFFFFF" transform="translate(791,342)"/>
<path d="M0 0 C5.78406969 -0.07410115 11.56786371 -0.12857885 17.35229492 -0.16479492 C19.32044283 -0.17989082 21.28855706 -0.20036948 23.2565918 -0.22631836 C26.08390612 -0.26266649 28.9107761 -0.27971814 31.73828125 -0.29296875 C33.06029289 -0.31619453 33.06029289 -0.31619453 34.40901184 -0.33988953 C35.22963608 -0.34011612 36.05026031 -0.34034271 36.89575195 -0.34057617 C37.61745071 -0.34723801 38.33914948 -0.35389984 39.0827179 -0.36076355 C41.56324298 0.10598208 42.42775297 1.06975023 44 3 C44.84375 4.80249023 44.84375 4.80249023 45.5 6.80859375 C45.7475 7.55689453 45.995 8.30519531 46.25 9.07617188 C46.4975 9.85541016 46.745 10.63464844 47 11.4375 C47.2475 12.18193359 47.495 12.92636719 47.75 13.69335938 C49.11716547 17.89098461 50.26848731 22.08256223 51.265625 26.3828125 C53.21807694 34.34586501 56.033997 41.99913951 58.78137207 49.71456909 C60.46237588 54.44007524 62.12196135 59.17308321 63.78125 63.90625 C64.29815399 65.38006386 64.29815399 65.38006386 64.82550049 66.88365173 C68.38630878 77.06127288 71.84790056 87.27147743 75.26672363 97.49758911 C75.91560578 99.43769033 76.56620488 101.37721825 77.21862793 103.31613159 C82.92157538 120.2755268 82.92157538 120.2755268 84.4765625 126.99609375 C86.60948664 136.089044 90.00903352 144.8336929 93.125 153.625 C93.80085096 155.54399302 94.47614046 157.46318388 95.15087891 159.38256836 C96.15756253 162.24566318 97.16470937 165.10858667 98.17404175 167.9707489 C101.31798887 176.88613571 104.40439321 185.82066528 107.47314453 194.76220703 C107.96210205 196.18122314 107.96210205 196.18122314 108.4609375 197.62890625 C108.73728027 198.43400635 109.01362305 199.23910645 109.29833984 200.06860352 C109.97409016 202.0439525 109.97409016 202.0439525 111 204 C111.80008365 202.02422092 112.58959921 200.04416153 113.375 198.0625 C113.81585938 196.96035156 114.25671875 195.85820313 114.7109375 194.72265625 C115.65117532 192.00736338 116.32085568 189.63336697 116.875 186.8515625 C118.15212109 180.78106583 120.42232973 175.09745339 122.625 169.3125 C123.5382839 166.88040484 124.45103838 164.44811082 125.36328125 162.015625 C125.81396973 160.81873047 126.2646582 159.62183594 126.72900391 158.38867188 C129.47532693 151.06655055 132.12260695 143.70842654 134.78222656 136.35449219 C135.968445 133.08692175 137.1622303 129.82221461 138.35780334 126.55805969 C139.51568545 123.39372866 140.66893664 120.22771917 141.82162476 117.06149292 C142.38751432 115.50997861 142.9551685 113.95910648 143.52481079 112.40896606 C146.76859299 103.57755027 149.79998418 94.75211602 152.279953 85.67179871 C153.4425017 81.50749811 154.84173946 77.7535739 157 74 C161.38710536 71.80644732 167.29956366 72.77289727 172.17578125 72.75976562 C174.35976354 72.75006766 176.54280145 72.71904869 178.7265625 72.6875 C180.11718192 72.68096892 181.50780806 72.67571886 182.8984375 72.671875 C184.16349121 72.6625293 185.42854492 72.65318359 186.73193359 72.64355469 C190.25663249 73.02799069 191.5815602 73.45518175 194 76 C195.08984375 78.09594727 195.08984375 78.09594727 195.9375 80.56640625 C196.2687085 81.50895264 196.59991699 82.45149902 196.94116211 83.42260742 C197.29057861 84.45877197 197.63999512 85.49493652 198 86.5625 C198.38099854 87.65731689 198.76199707 88.75213379 199.15454102 89.88012695 C199.99334953 92.2905097 200.82716976 94.70263252 201.65673828 97.11621094 C203.04379064 101.14227962 204.47035895 105.15379392 205.90234375 109.1640625 C210.76924538 122.81295876 215.53155708 136.48562713 220.0625 150.25 C225.90948708 168.00571463 232.42274356 185.50406373 239 203 C243.51423625 193.46994569 246.73186431 183.52325717 249.61769104 173.39515686 C252.87962075 161.98709426 256.71425346 150.7833925 260.5625 139.5625 C261.26994137 137.48988412 261.9772147 135.41721088 262.68432617 133.34448242 C265.94259879 123.81073971 269.23186684 114.28908286 272.609375 104.796875 C272.88559189 104.01984726 273.16180878 103.24281952 273.44639587 102.44224548 C274.71536309 98.87737846 275.99176792 95.31546568 277.28149414 91.75805664 C279.23048811 86.34433209 281.07825472 80.98325341 282.375 75.37109375 C284.56535682 66.10859436 288.00522826 57.20708038 291.1875 48.25 C292.54453298 44.41376826 293.89820782 40.57636265 295.25 36.73828125 C295.57908859 35.80496475 295.90817719 34.87164825 296.24723816 33.91004944 C298.11192535 28.60033848 299.91104062 23.2782519 301.625 17.91796875 C301.98440674 16.79551758 302.34381348 15.67306641 302.71411133 14.51660156 C303.34406021 12.52389644 303.96191554 10.52731061 304.56518555 8.52636719 C304.8362915 7.67075195 305.10739746 6.81513672 305.38671875 5.93359375 C305.60545654 5.21228271 305.82419434 4.49097168 306.04956055 3.74780273 C307.3231098 1.40581993 308.55449721 1.00141153 311 0 C313.07550049 -0.24050903 313.07550049 -0.24050903 315.30957031 -0.22705078 C316.15013977 -0.22689972 316.99070923 -0.22674866 317.85675049 -0.22659302 C318.75480408 -0.21627045 319.65285767 -0.20594788 320.578125 -0.1953125 C321.5046991 -0.1924826 322.43127319 -0.18965271 323.38592529 -0.18673706 C326.34074909 -0.17555611 329.29526805 -0.15045527 332.25 -0.125 C334.25520395 -0.11496751 336.26041266 -0.10584213 338.265625 -0.09765625 C343.17720051 -0.07562358 348.08854859 -0.04110795 353 0 C352.40137843 4.4575342 351.6485034 8.45357777 350.125 12.6875 C348.75231849 16.50831035 347.67876269 20.30255852 346.75390625 24.25 C344.87010642 31.90956785 342.28725213 39.30047177 339.70327759 46.74554443 C338.79053637 49.37579263 337.88411274 52.00814567 336.97924805 54.64111328 C335.67830061 58.42534515 334.37516645 62.20881261 333.0703125 65.99169922 C329.82188089 75.41381616 326.5926153 84.84246517 323.37240601 94.27426147 C322.33230462 97.31706188 321.28796436 100.35838473 320.2434082 103.3996582 C319.5956502 105.29501094 318.94809793 107.190434 318.30078125 109.0859375 C318.0107019 109.92713638 317.72062256 110.76833527 317.42175293 111.63502502 C316.00962344 115.78443337 314.72775823 119.92999013 313.61108398 124.16894531 C311.70775545 131.28997031 309.30102523 138.23877923 306.921875 145.2109375 C306.42696504 146.66938221 305.93236308 148.12793148 305.43804932 149.58657837 C304.1415753 153.40984465 302.84131339 157.23181129 301.5401001 161.0534668 C300.23956332 164.87480452 298.94204925 168.69716767 297.64453125 172.51953125 C297.3916761 173.26432865 297.13882095 174.00912605 296.87830353 174.77649307 C294.25054021 182.51709886 291.62433667 190.25823181 289 198 C288.63253662 199.08253052 288.26507324 200.16506104 287.88647461 201.28039551 C284.98185732 209.84933383 282.12274677 218.41101003 279.62890625 227.109375 C276.48409001 238.06821463 272.80580866 248.85428303 269.15209961 259.65185547 C267.92683262 263.28160119 266.71636604 266.91609046 265.50585938 270.55078125 C264.72225794 272.87270103 263.9377847 275.19432683 263.15234375 277.515625 C262.79494614 278.59579895 262.43754852 279.6759729 262.06932068 280.78887939 C258.59107317 290.96121165 258.59107317 290.96121165 255 294 C251.94726562 294.63110352 251.94726562 294.63110352 248.40625 294.62890625 C247.12878906 294.63083984 245.85132813 294.63277344 244.53515625 294.63476562 C243.87273926 294.62227783 243.21032227 294.60979004 242.52783203 294.59692383 C240.50541971 294.562592 238.48737637 294.57626989 236.46484375 294.59570312 C226.6708166 294.52158082 226.6708166 294.52158082 223.68994141 292.20385742 C222.12163939 290.15863028 221.19004818 288.59234009 220.3671875 286.171875 C220.11839844 285.45386719 219.86960938 284.73585938 219.61328125 283.99609375 C219.36964844 283.25488281 219.12601563 282.51367188 218.875 281.75 C218.62363281 281.02425781 218.37226563 280.29851562 218.11328125 279.55078125 C216.94726194 276.12598108 215.94074676 272.75343883 215.09399414 269.22998047 C214.05470352 265.02182931 212.65209821 261.01522058 211.12890625 256.9609375 C210.85070541 256.20983704 210.57250458 255.45873657 210.28587341 254.68487549 C209.38192989 252.24680173 208.47222267 249.81092254 207.5625 247.375 C206.93118423 245.67513688 206.30032992 243.97510231 205.66992188 242.27490234 C204.39355973 238.83311063 203.11549201 235.39195949 201.83642578 231.95117188 C199.19988782 224.85138497 196.59976117 217.73831548 194 210.625 C190.5711507 201.23443513 190.5711507 201.23443513 187.05859375 191.875 C186.63803711 190.76970947 186.63803711 190.76970947 186.20898438 189.64208984 C185.51784333 187.8350622 184.81991258 186.03063486 184.12109375 184.2265625 C183.28440226 181.81852359 182.62419965 179.55347239 182.04296875 177.0859375 C181.03650673 172.88351715 179.53051374 168.98432254 177.875 165 C177.59785156 164.32066406 177.32070312 163.64132812 177.03515625 162.94140625 C176.3615774 161.29229941 175.68148671 159.64585471 175 158 C164.43204456 185.71845711 154.35703515 213.61566595 145.07824707 241.79217529 C141.5318558 252.54972037 137.83458465 263.2392648 133.9375 273.875 C133.707211 274.5066507 133.476922 275.13830139 133.23965454 275.78909302 C127.16323576 292.41838212 127.16323576 292.41838212 124 294 C119.89635792 294.28009999 115.79111678 294.31353855 111.67871094 294.35009766 C110.3129777 294.3666579 108.94733118 294.39395011 107.58203125 294.43212891 C105.60990239 294.48696324 103.63687332 294.50564662 101.6640625 294.5234375 C100.48279785 294.54325684 99.3015332 294.56307617 98.08447266 294.58349609 C95 294 95 294 92.69262695 291.74755859 C91.19135734 289.31062101 90.12827589 287.22573152 89.25390625 284.515625 C88.97353516 283.66097656 88.69316406 282.80632812 88.40429688 281.92578125 C88.12650391 281.04277344 87.84871094 280.15976562 87.5625 279.25 C87.28857422 278.41339844 87.01464844 277.57679688 86.73242188 276.71484375 C85.14924259 271.82401529 83.67387503 266.90548627 82.23892212 261.96963501 C79.59135317 252.8649189 76.71081899 243.86120709 73.6875 234.875 C73.17879223 233.35446528 72.67025277 231.83387424 72.16186523 230.31323242 C69.08735845 221.13333456 65.96927822 211.96855815 62.8359375 202.80859375 C62.48161148 201.77176453 62.12728546 200.7349353 61.76222229 199.66668701 C60.02003503 194.56946505 58.27400762 189.47362874 56.52026367 184.38037109 C53.71286486 176.19892416 50.94167 168.03060865 48.5703125 159.7109375 C45.59147271 149.27600968 42.01830567 139.04028112 38.50009155 128.77746582 C36.88641361 124.06933287 35.28134425 119.35827978 33.67579651 114.64736938 C32.88095161 112.31535373 32.08573908 109.98346335 31.29014587 107.65170288 C28.23322365 98.69201105 25.19230743 89.72730372 22.1875 80.75 C21.63993042 79.1263855 21.63993042 79.1263855 21.08129883 77.4699707 C19.37333696 72.35331371 17.76314393 67.22351937 16.27624512 62.0390625 C14.28525189 55.1025453 12.10418891 48.27808342 9.66796875 41.484375 C9.38348373 40.68537781 9.09899872 39.88638062 8.80589294 39.06317139 C7.64201586 35.79850262 6.47632307 32.53500231 5.27954102 29.28222656 C1.60354788 19.25552523 -1.07699005 10.81583276 0 0 Z " fill="#FFFFFF" transform="translate(0,379)"/>
<path d="M0 0 C14.19 0 28.38 0 43 0 C43 39.93 43 79.86 43 121 C82.6 121 122.2 121 163 121 C163 81.07 163 41.14 163 0 C177.85 0 192.7 0 208 0 C208 96.03 208 192.06 208 291 C193.48 291 178.96 291 164 291 C164 249.75 164 208.5 164 166 C124.07 166 84.14 166 43 166 C43 207.25 43 248.5 43 291 C28.81 291 14.62 291 0 291 C-1.22180748 288.55638504 -1.12533335 286.9911974 -1.12584114 284.25889492 C-1.12844889 283.2523116 -1.13105664 282.24572827 -1.13374341 281.20864242 C-1.13151268 280.09455712 -1.12928196 278.98047181 -1.12698364 277.83262634 C-1.12854363 276.65555998 -1.13010362 275.47849362 -1.13171089 274.26575857 C-1.13502047 270.9885421 -1.13381431 267.71136235 -1.13072467 264.43414676 C-1.12847011 260.90379376 -1.13195045 257.37344587 -1.13470459 253.84309387 C-1.13916054 246.92344508 -1.13818663 240.0038071 -1.13529195 233.08415788 C-1.13303741 227.46302637 -1.13272561 221.8418979 -1.13381577 216.22076607 C-1.133969 215.42202173 -1.13412223 214.6232774 -1.13428011 213.80032869 C-1.13459982 212.17792149 -1.13492403 210.55551429 -1.1352527 208.93310709 C-1.13810693 193.705872 -1.13482126 178.47864292 -1.12945233 163.25140882 C-1.12498349 150.17175326 -1.125761 137.09210657 -1.13037109 124.01245117 C-1.13571638 108.83971226 -1.13783315 93.66697863 -1.13475883 78.49423891 C-1.13444027 76.87796533 -1.13412589 75.26169175 -1.13381577 73.64541817 C-1.13366149 72.8500851 -1.13350721 72.05475203 -1.13334826 71.23531796 C-1.13248304 65.61721913 -1.13394609 59.99912363 -1.13629532 54.38102531 C-1.13909298 47.53987098 -1.13835575 40.69872812 -1.13301457 33.85757511 C-1.13037722 30.36384618 -1.12937307 26.87013643 -1.13266373 23.37640762 C-1.13537186 19.59771558 -1.13199826 15.8190785 -1.12698364 12.04039001 C-1.12921436 10.92407399 -1.13144509 9.80775796 -1.13374341 8.65761417 C-1.13113566 7.65363859 -1.12852791 6.64966302 -1.12584114 5.61526394 C-1.12567879 4.74185216 -1.12551644 3.86844039 -1.12534916 2.96856159 C-1 1 -1 1 0 0 Z " fill="#FFFFFF" transform="translate(362,379)"/>
<path d="M0 0 C0.80695313 0.37253906 1.61390625 0.74507812 2.4453125 1.12890625 C16.38188271 8.09719136 25.3927073 20.65633568 30.9375 34.875 C33.40791738 42.47301908 34.35386454 50.08387338 35 58 C35.11085938 59.28390625 35.22171875 60.5678125 35.3359375 61.890625 C36.34723492 75.17415332 36.09097685 88.2371201 34.875 101.5 C34.81097992 102.1983194 34.74695984 102.89663879 34.68099976 103.61611938 C33.51078261 115.92645313 31.14426004 127.33770204 27 139 C26.71527832 139.83966309 26.43055664 140.67932617 26.13720703 141.54443359 C21.17469907 156.10825603 14.45150679 169.56309939 7 183 C6.55865723 183.79986328 6.11731445 184.59972656 5.66259766 185.42382812 C0.25522638 195.14335416 -5.80081404 204.1336355 -12.50537109 212.99755859 C-14.69671384 215.93342811 -16.81805778 218.91802138 -18.94580078 221.90014648 C-35.14874313 244.57437156 -35.14874313 244.57437156 -42 248 C-42.99 248 -43.98 248 -45 248 C-45.22550537 246.86908936 -45.45101074 245.73817871 -45.68334961 244.57299805 C-50.17513482 222.19514901 -54.9206512 200.3979339 -63 179 C-63.38188477 177.95271729 -63.76376953 176.90543457 -64.15722656 175.82641602 C-67.02167909 168.11226389 -70.41071985 160.83656574 -74.25 153.5625 C-74.82065186 152.47066406 -75.39130371 151.37882813 -75.97924805 150.25390625 C-79.02455825 144.49656075 -82.17595614 138.90295777 -85.8125 133.5 C-100.32648304 111.63581637 -107.63159057 84.86478074 -102.75 58.75 C-98.03088316 35.62660689 -85.95583268 20.23453944 -66.453125 7.3125 C-57.97513074 2.25729845 -48.44147654 -0.33654242 -39 -3 C-38.32138916 -3.19795166 -37.64277832 -3.39590332 -36.94360352 -3.59985352 C-24.2682144 -7.08203466 -11.72597279 -5.86298639 0 0 Z M-60.62890625 17.4921875 C-66.08907723 23.78360839 -66.45586355 29.62477753 -66.3046875 37.6875 C-65.74319129 43.79197157 -62.75369973 46.39297388 -58.3125 50.125 C-44.97978299 61.39313583 -38.09580785 76.99469259 -36 94 C-35.83871148 96.82830318 -35.80948849 99.64793288 -35.8125 102.48046875 C-35.8137085 103.70735664 -35.8137085 103.70735664 -35.81494141 104.95903015 C-35.92498608 116.45310229 -37.17879314 127.87239495 -38.29101562 139.3034668 C-40.07887469 157.88291033 -40.96610301 176.39223941 -39 195 C-38.67 195 -38.34 195 -38 195 C-34.2547376 178.46905726 -31.40814301 162.05005338 -29.6875 145.1875 C-29.60673218 144.40437439 -29.52596436 143.62124878 -29.44274902 142.81439209 C-21.92045524 75.20716563 -21.92045524 75.20716563 -44.0703125 14.04296875 C-45.45717234 12.27763216 -45.45717234 12.27763216 -47 11 C-52.17243611 11 -56.85767236 14.03748403 -60.62890625 17.4921875 Z " fill="#FFFFFF" transform="translate(974,608)"/>
<path d="M0 0 C12.3770314 0.23373562 20.64792231 6.02833717 30.20874023 13.3828125 C31.21936523 14.0221875 32.22999023 14.6615625 33.27124023 15.3203125 C43.2272448 22.31069869 52.40223434 31.61733417 58.20874023 42.3828125 C58.39624023 44.9453125 58.39624023 44.9453125 57.20874023 47.3828125 C46.08514147 55.02699175 32.72286198 54.85712209 19.80639648 54.15625 C1.94001626 53.19102432 -15.90505048 53.28677718 -33.79125977 53.3828125 C-32.83872314 53.72014404 -31.88618652 54.05747559 -30.90478516 54.4050293 C-27.32914117 55.67370321 -23.75733466 56.95290097 -20.18652344 58.23510742 C-18.6484684 58.78578103 -17.10942322 59.33369802 -15.56933594 59.87866211 C-4.62638886 63.75362325 5.31666376 67.60092486 14.27124023 75.1953125 C15.68083008 76.38060547 15.68083008 76.38060547 17.11889648 77.58984375 C17.80854492 78.18152344 18.49819336 78.77320313 19.20874023 79.3828125 C18.79003876 84.87160818 18.79003876 84.87160818 16.32983398 87.03515625 C8.3794864 90.84252794 0.24315026 93.25347157 -8.22680664 95.63647461 C-24.64468235 100.26505264 -40.5202817 105.76421614 -55.79125977 113.3828125 C-57.09178837 113.98384439 -58.39392552 114.58140585 -59.69750977 115.17578125 C-73.38781472 121.53520237 -84.63801656 130.66135983 -96.18188477 140.28125 C-99.86035086 143.24384694 -103.70312273 145.95550318 -107.57641602 148.65625 C-110.0055686 150.36282429 -110.0055686 150.36282429 -111.79125977 153.3828125 C-111.09774414 153.10179687 -110.40422852 152.82078125 -109.68969727 152.53125 C-100.66530587 148.95554775 -91.68364667 146.01903346 -82.28344727 143.60546875 C-76.52588466 142.07999493 -70.85293241 140.27574345 -65.16625977 138.5078125 C-62.90987954 137.81207764 -60.65336919 137.11676464 -58.39672852 136.421875 C-55.18666178 135.43322859 -51.97790702 134.44159475 -48.77416992 133.43261719 C-25.09132947 125.99369878 -25.09132947 125.99369878 -14.35375977 129.5078125 C-7.31812987 134.65583437 -7.31812987 134.65583437 -5.79125977 137.3828125 C-5.9440918 140.32202148 -5.9440918 140.32202148 -6.79125977 143.3828125 C-8.66357422 144.93847656 -8.66357422 144.93847656 -11.34204102 146.1484375 C-12.43339355 146.64408203 -13.52474609 147.13972656 -14.64916992 147.65039062 C-16.02768771 148.23304662 -17.40863878 148.80996127 -18.79125977 149.3828125 C-19.6234906 149.72916748 -20.45572144 150.07552246 -21.31317139 150.43237305 C-28.50647094 153.40481352 -35.74064104 156.2716924 -42.97875977 159.1328125 C-45.12153282 159.98388437 -47.26411219 160.83544409 -49.40649414 161.6875 C-53.69213518 163.39148816 -57.97910985 165.09206223 -62.2668457 166.79077148 C-66.74316674 168.56611633 -71.21464403 170.3530396 -75.68286133 172.14868164 C-76.80582108 172.59967224 -77.92878082 173.05066284 -79.08576965 173.51531982 C-81.21748218 174.3721387 -83.34861579 175.23039986 -85.47904968 176.09039307 C-91.00069497 178.30880636 -96.53442805 180.39838212 -102.16625977 182.3203125 C-109.48269835 184.83402325 -116.63341036 187.69892069 -123.79125977 190.6328125 C-124.935625 191.10187012 -126.07999023 191.57092773 -127.2590332 192.05419922 C-130.77032962 193.4957253 -134.28082099 194.93919933 -137.79125977 196.3828125 C-142.32859083 198.24782334 -146.87043034 200.10112122 -151.41625977 201.9453125 C-152.42817383 202.36264648 -153.44008789 202.77998047 -154.48266602 203.20996094 C-162.10715225 206.29301661 -169.42704422 208.68045506 -177.72875977 208.6328125 C-178.6452832 208.63796875 -179.56180664 208.643125 -180.50610352 208.6484375 C-182.79125977 208.3828125 -182.79125977 208.3828125 -184.79125977 206.3828125 C-184.53580311 200.4772557 -182.46799028 195.77642705 -179.91625977 190.5078125 C-179.51914795 189.6813623 -179.12203613 188.85491211 -178.71289062 188.00341797 C-170.4797625 171.30771127 -159.49181499 155.56950861 -146.08813477 142.64453125 C-144.04600447 140.63365805 -142.19322941 138.577037 -140.35375977 136.3828125 C-131.50657224 126.10932605 -120.45112355 117.26230853 -108.79125977 110.3828125 C-107.12059317 109.31301748 -105.44996342 108.24316468 -103.77978516 107.17260742 C-93.89549131 100.87417351 -83.66157815 95.28603346 -73.33081055 89.75927734 C-70.05272981 87.98252103 -66.81514999 86.1371555 -63.58398438 84.27661133 C-61.79125977 83.3828125 -61.79125977 83.3828125 -59.79125977 83.3828125 C-59.79125977 82.7228125 -59.79125977 82.0628125 -59.79125977 81.3828125 C-71.43342791 79.9441813 -83.08447697 78.74150206 -94.76812744 77.69406128 C-97.61381739 77.43880411 -100.4591309 77.1795942 -103.30444336 76.92016602 C-112.70961291 76.06850523 -122.11582933 75.26398919 -131.53344727 74.5625 C-132.37734009 74.49858566 -133.22123291 74.43467133 -134.09069824 74.36882019 C-138.05617497 74.06871085 -142.02178064 73.77883562 -145.98950195 73.51000977 C-162.77492654 72.30649943 -162.77492654 72.30649943 -167.79125977 69.3828125 C-168.68774414 67.49267578 -168.68774414 67.49267578 -168.79125977 65.3828125 C-165.58118002 58.89786742 -158.92484755 55.91820377 -152.66625977 53.0703125 C-151.17509644 52.37591064 -151.17509644 52.37591064 -149.65380859 51.66748047 C-114.38566183 35.64615517 -79.39442136 28.98086653 -41.12744141 25.68920898 C-40.20450287 25.60905548 -39.28156433 25.52890198 -38.33065796 25.44631958 C-36.57878855 25.29522938 -34.82661712 25.14758993 -33.0741272 25.00387573 C-29.81316306 24.72411799 -26.90865429 24.42194401 -23.79125977 23.3828125 C-24.45834961 22.74666016 -24.45834961 22.74666016 -25.13891602 22.09765625 C-25.70481445 21.51113281 -26.27071289 20.92460937 -26.85375977 20.3203125 C-27.70647461 19.46759766 -27.70647461 19.46759766 -28.57641602 18.59765625 C-29.79125977 16.3828125 -29.79125977 16.3828125 -30.00610352 12.91015625 C-28.67892086 9.05663234 -28.40191892 8.75667796 -25.01000977 6.984375 C-23.44893789 6.29792744 -21.8751492 5.639833 -20.29125977 5.0078125 C-18.71794555 4.33426118 -17.14500827 3.65982852 -15.57250977 2.984375 C-14.8719043 2.69900879 -14.17129883 2.41364258 -13.44946289 2.11962891 C-8.94684535 0.11890751 -5.10965489 0.0161045 0 0 Z " fill="#FFFFFF" transform="translate(655.791259765625,167.6171875)"/>
<path d="M0 0 C1.31486331 0.86692805 2.63137119 1.73136518 3.94921875 2.59375 C12.32758926 8.13737786 19.71826945 14.06388351 27 21 C28.38893492 22.21625652 29.78423591 23.4253042 31.1875 24.625 C57.11047247 47.28125642 87.50518386 89.2485802 91.2734375 124.5625 C91.45438856 128.90532548 91.31042285 131.43267548 89.1875 135.3125 C83.41100623 141.17222855 73.92260108 144.12230341 65.9375 144.234375 C65.174375 144.23953125 64.41125 144.2446875 63.625 144.25 C62.49191406 144.2809375 62.49191406 144.2809375 61.3359375 144.3125 C56.73104661 144.34470203 53.66190413 144.07962256 50 141 C46.93645392 137.06430926 45.21673768 133.28367377 43.6875 128.5625 C39.13769025 115.36943466 32.63623407 103.14624205 26.01513672 90.89501953 C25.1287487 89.24034329 24.26728014 87.57236645 23.41015625 85.90234375 C19.66065905 78.68378267 15.03733263 72.3739383 10 66 C9.25363281 65.04738281 8.50726562 64.09476562 7.73828125 63.11328125 C2.85217338 56.99925099 -2.37587854 51.43554145 -8 46 C-8.804375 45.175 -9.60875 44.35 -10.4375 43.5 C-11.283125 42.675 -12.12875 41.85 -13 41 C-13.65871094 40.35675781 -14.31742188 39.71351563 -14.99609375 39.05078125 C-32.96688532 22.14230248 -55.762204 11.86143534 -79.17578125 4.86328125 C-87.8845358 2.20126914 -87.8845358 2.20126914 -90.625 -0.75 C-91.09415582 -3.56493491 -90.60759569 -5.57515667 -89.3671875 -8.1328125 C-68.47230091 -36.66925761 -22.13537217 -15.36946596 0 0 Z " fill="#FFFFFF" transform="translate(818,226)"/>
<path d="M0 0 C6.80774014 4.2408873 11.41343978 8.61267917 13.5078125 16.609375 C12.83234375 16.98449219 12.156875 17.35960937 11.4609375 17.74609375 C4.42991705 21.55531958 4.42991705 21.55531958 -0.4921875 27.609375 C-0.96410694 32.56452913 -1.04600768 37.21680429 1.5078125 41.609375 C4.39301291 43.08178099 7.37308621 43.83845697 10.5078125 44.609375 C11.8631473 45.00118997 13.21746874 45.39654368 14.5703125 45.796875 C15.5396875 46.065 16.5090625 46.333125 17.5078125 46.609375 C17.19109878 56.42750039 13.4013555 63.1586526 6.3203125 69.921875 C-4.28620208 78.80258382 -15.88687049 80.48945923 -29.25683594 79.8359375 C-34.53877587 79.30059016 -38.94873536 77.23463625 -43.4921875 74.609375 C-44.57693359 73.99255859 -44.57693359 73.99255859 -45.68359375 73.36328125 C-54.94112846 67.25801863 -61.1650031 57.42428235 -63.90234375 46.828125 C-66.36567909 33.38581822 -63.07742207 21.28193608 -55.41015625 10.05078125 C-42.01325329 -7.00230297 -18.55413981 -10.35309368 0 0 Z " fill="#FFFFFF" transform="translate(797.4921875,486.390625)"/>
<path d="M0 0 C0.66 0 1.32 0 2 0 C4.41685712 4.22949995 5.34833144 7.12335991 5 12 C2.65085508 9.65085508 2.26859643 8.04320554 1.375 4.875 C1.11460937 3.96492188 0.85421875 3.05484375 0.5859375 2.1171875 C0.39257812 1.41851562 0.19921875 0.71984375 0 0 Z " fill="#FFFFFF" transform="translate(1019,499)"/>
</svg>
