<?xml version="1.0" encoding="UTF-8"?>
<svg version="1.1" xmlns="http://www.w3.org/2000/svg" width="1080" height="708">
<path d="M0 0 C14.85 0 29.7 0 45 0 C47.50809818 6.27024545 49.91022592 12.44070861 52.02459717 18.83328247 C52.30161288 19.66262074 52.57862858 20.49195902 52.86403871 21.34642875 C53.78036837 24.09215517 54.69243639 26.83927704 55.60449219 29.58642578 C56.26491438 31.56825716 56.92560161 33.55000023 57.58653259 35.53166199 C59.37198415 40.88744487 61.15374367 46.2444494 62.93482494 51.60168695 C64.79979187 57.20912434 66.66817678 62.81542263 68.53619385 68.42184448 C72.06944122 79.02779277 75.59962946 89.63475662 79.12871003 100.24209201 C83.14811486 112.32269238 87.17094352 124.40215168 91.19405508 136.48151803 C99.46650407 161.31974742 107.73466893 186.15940118 116 211 C118.16445836 206.21958459 120.29370184 201.46738697 122.02026367 196.50756836 C122.36612518 195.52025223 122.71198669 194.5329361 123.06832886 193.51570129 C123.43121002 192.4676683 123.79409119 191.41963531 124.16796875 190.33984375 C124.56033722 189.21692429 124.95270569 188.09400482 125.35696411 186.9370575 C126.19929778 184.52519823 127.03994634 182.1127499 127.87905884 179.69976807 C129.20325086 175.89221025 130.53174718 172.08618361 131.86206055 168.28076172 C132.08567544 167.6410569 132.30929033 167.00135208 132.53968143 166.34226227 C132.99373476 165.04334779 133.44780234 163.7444383 133.90188408 162.44553375 C134.58818273 160.48185706 135.27401384 158.51801763 135.95973206 156.55413818 C140.02562344 144.91168566 144.12286156 133.28042887 148.2394104 121.65579224 C148.94277272 119.66924325 149.64557221 117.68249488 150.3477478 115.69552612 C152.24652427 110.32252011 154.15534907 104.9532938 156.07720947 99.58850098 C157.0364371 96.89779104 157.98175978 94.20240147 158.92724609 91.50683594 C159.54861078 89.76217635 160.17049708 88.01770243 160.79296875 86.2734375 C161.07215652 85.46701813 161.3513443 84.66059875 161.63899231 83.82974243 C163.65887375 78.2274175 163.65887375 78.2274175 167 76 C171.55036121 75.56628668 176.11001841 75.58594015 180.6784668 75.57446289 C182.92672417 75.56255706 185.17224308 75.5133643 187.41992188 75.46289062 C188.85154913 75.45342676 190.28319321 75.44619154 191.71484375 75.44140625 C193.66571899 75.42122437 193.66571899 75.42122437 195.65600586 75.40063477 C199 76 199 76 201.22216797 77.89892578 C203.66223044 82.15512924 205.18513505 86.53051395 206.73046875 91.17578125 C207.07821854 92.19274582 207.42596832 93.20971039 207.78425598 94.25749207 C208.53498749 96.45629036 209.28113583 98.65665769 210.02319336 100.85839844 C211.60345707 105.54650308 213.20588359 110.22692891 214.80740356 114.9078064 C215.63585902 117.32949421 216.46321907 119.751557 217.28952026 122.17398071 C221.43481025 134.31527286 225.70312075 146.41167349 230 158.5 C230.70988622 160.49926521 231.41976586 162.49853276 232.12963867 164.49780273 C233.78226032 169.14997622 235.43730489 173.80128331 237.09326172 178.45227051 C238.22580682 181.63446608 239.35635488 184.81736896 240.48681641 188.00030518 C241.65642066 191.29238946 242.82814323 194.58371682 244 197.875 C244.60521484 199.5775293 244.60521484 199.5775293 245.22265625 201.31445312 C245.58230469 202.32185547 245.94195312 203.32925781 246.3125 204.3671875 C246.61800781 205.22425293 246.92351562 206.08131836 247.23828125 206.96435547 C247.96860575 209.02503715 247.96860575 209.02503715 249 211 C257.65313549 185.79863182 266.18091899 160.55972019 274.5437355 135.26056671 C276.31503181 129.90313208 278.09124058 124.54733306 279.86837769 119.1918335 C280.17279065 118.27440628 280.47720362 117.35697907 280.79084122 116.41175103 C281.41087585 114.54315311 282.03092209 112.67455904 282.65097976 110.80596876 C286.7632064 98.41292775 290.87229319 86.01886913 294.96875 73.62060547 C297.77008369 65.14226334 300.57882501 56.6664159 303.39621818 48.19339633 C304.87614248 43.74168887 306.35227581 39.28880588 307.81921768 34.83280182 C309.18767862 30.6760897 310.56584926 26.52272781 311.95159721 22.37174797 C312.4567453 20.8527843 312.95829607 19.33261878 313.45594597 17.81118202 C314.135999 15.73388847 314.82892725 13.66132756 315.525177 11.5894165 C315.90889528 10.43051029 316.29261356 9.27160408 316.68795967 8.0775795 C318.06780686 4.84094925 319.60572949 2.56770268 322 0 C324.18939209 -0.60127258 324.18939209 -0.60127258 326.58496094 -0.56762695 C327.93590851 -0.56706047 327.93590851 -0.56706047 329.31414795 -0.56648254 C330.27782288 -0.54067612 331.2414978 -0.51486969 332.234375 -0.48828125 C333.72411835 -0.47766914 333.72411835 -0.47766914 335.24395752 -0.46684265 C338.41340733 -0.43887288 341.58108497 -0.37612801 344.75 -0.3125 C346.89971406 -0.28742054 349.04945582 -0.26460676 351.19921875 -0.24414062 C356.4667496 -0.18903822 361.7332482 -0.10538665 367 0 C362.88063205 14.6207224 358.08079179 28.99867075 353.25390625 43.3984375 C352.39709235 45.96132803 351.54130589 48.52456125 350.68553162 51.08779907 C348.43652415 57.82223315 346.18380024 64.55541944 343.93023682 71.28833008 C340.14865221 82.58664198 336.37120476 93.88633793 332.59658813 105.18697953 C332.15873671 106.49780205 331.72083976 107.80860937 331.28289795 109.11940169 C325.4691111 126.5209222 319.71104507 143.93902326 314.05684471 161.39311028 C306.37987882 185.08349596 298.47201856 208.69717836 290.58361816 232.31781006 C288.54288782 238.42959235 286.50394821 244.54197199 284.46484375 250.65429688 C282.17134945 257.52872694 279.87766904 264.40309463 277.58285522 271.27708435 C277.23901606 272.30754159 276.89517689 273.33799883 276.54091835 274.39968204 C275.8843021 276.36523664 275.22636614 278.33035099 274.56694603 280.2949667 C273.25784888 284.19908458 271.95626862 288.10248496 270.73614502 292.03543091 C270.39476501 293.12274506 270.05338501 294.2100592 269.70166016 295.33032227 C269.43535797 296.21075699 269.16905579 297.09119171 268.89468384 297.99830627 C268 300 268 300 265 302 C260.73518572 302.45344783 256.46181968 302.4564559 252.17602539 302.48046875 C250.07212853 302.49991102 247.97212219 302.56196718 245.86914062 302.625 C244.52866897 302.63805931 243.18816946 302.64856057 241.84765625 302.65625 C240.63086182 302.67494141 239.41406738 302.69363281 238.16040039 302.71289062 C235 302 235 302 232.75756836 299.46264648 C230.83799126 295.68082095 229.36486724 291.95924409 228.03125 287.94140625 C227.75856293 287.14557632 227.48587585 286.3497464 227.20492554 285.52980042 C226.6102997 283.79313935 226.01932522 282.05522476 225.43157959 280.31622314 C223.80028785 275.4941705 222.13818914 270.68276174 220.4765625 265.87109375 C220.12175812 264.84238159 219.76695374 263.81366943 219.40139771 262.75378418 C215.0408417 250.15723872 210.45340325 237.64360443 205.875 225.125 C198.08553135 203.80614302 190.44269924 182.44235842 183 161 C178.4780294 171.14620513 174.92811227 181.60492843 171.32888794 192.10391235 C169.46119332 197.55019714 167.57987055 202.99177231 165.69921875 208.43359375 C165.31225327 209.55400558 164.92528778 210.67441742 164.52659607 211.82878113 C158.72902213 228.59461636 152.7804558 245.30713233 146.82902527 262.01882935 C145.06007292 266.99279573 143.30856228 271.97209606 141.58601379 276.96232605 C140.88087348 279.00493733 140.17150988 281.046028 139.46069336 283.08666992 C138.64491779 285.43388228 137.83764139 287.78407625 137.04125977 290.13793945 C136.69119873 291.13913818 136.3411377 292.14033691 135.98046875 293.171875 C135.69067139 294.0184668 135.40087402 294.86505859 135.10229492 295.73730469 C133.73475589 298.54447007 132.50165875 300.11135697 130 302 C126.93139648 302.50170898 126.93139648 302.50170898 123.37109375 302.49609375 C121.44813477 302.49706055 121.44813477 302.49706055 119.48632812 302.49804688 C118.82189697 302.48765381 118.15746582 302.47726074 117.47290039 302.46655273 C115.44009075 302.43753698 113.40988183 302.44596066 111.37695312 302.45898438 C101.61881955 302.39514153 101.61881955 302.39514153 99.24658203 300.88037109 C97.47737681 298.21166396 96.57987206 295.51791407 95.55859375 292.48046875 C95.32318375 291.78803574 95.08777374 291.09560272 94.8452301 290.38218689 C94.03377647 287.98685733 93.23570448 285.58727474 92.4375 283.1875 C91.84502952 281.42735994 91.25190309 279.66744058 90.65820312 277.90771484 C88.86131544 272.57059065 87.07843554 267.22885366 85.29705811 261.88653564 C83.87592946 257.62623118 82.45000607 253.36753576 81.02392578 249.10888672 C77.67794819 239.11581633 74.33763027 229.12086122 71 219.125 C70.72936108 218.31466183 70.45872215 217.50432365 70.17988205 216.66942978 C64.20183903 198.768063 58.2658875 180.85463365 52.45035172 162.89976501 C46.32478179 143.9926151 40.05569051 125.13522881 33.74118519 106.29055738 C32.76580277 103.37920392 31.79107869 100.46763024 30.81638503 97.55604613 C26.55931986 84.83951353 22.30136537 72.12328652 18.02978516 59.41162109 C15.77030677 52.68759563 13.51614118 45.96181478 11.26806533 39.23396814 C10.08963825 35.70801242 8.90851689 32.18301291 7.72070694 28.66020584 C6.41137589 24.77695056 5.11365006 20.88991416 3.81689453 17.00244141 C3.42745667 15.85367523 3.0380188 14.70490906 2.63677979 13.52133179 C2.28678925 12.46593201 1.93679871 11.41053223 1.57620239 10.32315063 C1.26991472 9.41019541 0.96362705 8.49724018 0.64805794 7.55661964 C0 5 0 5 0 0 Z " fill="#000000" transform="translate(0,217)"/>
<path d="M0 0 C16.81067236 11.20293627 32.01129465 25.5565485 45 41 C45.45648926 41.54269531 45.91297852 42.08539063 46.38330078 42.64453125 C54.29538309 52.09753398 61.66593787 61.82560812 68.62841797 71.99755859 C69.87956495 73.82417083 71.14358513 75.64110398 72.41015625 77.45703125 C87.02632683 98.65887869 99.26639939 121.61262394 111.72363281 144.11328125 C125.79567762 169.49564227 138.82744378 191.17499172 168.46875 199.7109375 C180.41140553 202.61249818 192.15742129 202.40850451 204.24072266 200.71166992 C208.19506123 200.16679603 212.00916715 199.90069467 216 200 C217.73236835 205.51323065 216.48904572 211.00530211 213.94921875 216.11328125 C206.02470707 227.77797543 190.75473784 236.2682486 177.23046875 239.52734375 C152.23709588 243.1841734 132.83178269 234.11866741 113.16479492 219.56860352 C111.7564701 218.51953391 110.34849093 217.47000006 108.94091797 216.41992188 C106.34848288 214.5233681 103.69180123 212.75200965 101 211 C100.77449463 211.97271851 100.77449463 211.97271851 100.54443359 212.96508789 C97.55334031 225.73319018 94.51810648 238.05743138 89 250 C88.70899414 250.63808594 88.41798828 251.27617187 88.11816406 251.93359375 C70.61335307 289.94404048 38.9760823 318.72351879 -0.2421875 333.42578125 C-41.99073195 348.21083719 -87.52802613 346.17758559 -127.66943359 327.16992188 C-139.05282553 321.45556883 -149.48840333 314.45983358 -159 306 C-159.825 305.29488281 -160.65 304.58976562 -161.5 303.86328125 C-173.31463804 293.58085408 -182.65340184 282.18000004 -191 269 C-191.40492676 268.36078613 -191.80985352 267.72157227 -192.22705078 267.06298828 C-213.81597505 232.3407275 -220.72030715 187.83983461 -212 148 C-205.25085752 119.81993116 -191.58384735 94.29599913 -171.41650391 73.46777344 C-169.99524487 71.99507276 -168.59721558 70.50257502 -167.19921875 69.0078125 C-140.53460051 40.94482771 -106.4284432 29.23807387 -69 23 C-80.88 18.71 -92.76 14.42 -105 10 C-105 9.01 -105 8.02 -105 7 C-100.25396426 5.09657568 -95.50744159 3.19437212 -90.76049805 1.29321289 C-89.15164548 0.64867706 -87.5429177 0.00382963 -85.93432617 -0.64135742 C-55.02311966 -13.03859107 -29.86035691 -19.13808977 0 0 Z M-118 83 C-118.96421875 83.81339844 -119.9284375 84.62679687 -120.921875 85.46484375 C-146.36878782 107.71331863 -161.25138586 140.54098196 -164.75 173.875 C-164.85457365 175.58216478 -164.93775181 177.29076848 -165 179 C-165.0515625 179.96292969 -165.103125 180.92585938 -165.15625 181.91796875 C-166.15376741 215.37636516 -150.18778184 248.22586213 -127.74047852 272.30688477 C-112.62083445 287.91989913 -93.10665794 299.60189695 -72.3125 305.8125 C-71.33458496 306.10483521 -71.33458496 306.10483521 -70.33691406 306.40307617 C-49.35647907 312.29182023 -26.92982701 311.69452257 -6 306 C-5.32437012 305.81808105 -4.64874023 305.63616211 -3.95263672 305.44873047 C29.29352902 296.16436325 55.6558212 273.39094788 73.1875 244.25 C81.96431255 228.66453516 90.68860632 207.12004473 89 189 C88.16417274 186.48396025 87.30176034 184.25645837 86.1875 181.875 C85.8783667 181.19542236 85.5692334 180.51584473 85.25073242 179.81567383 C71.23304836 149.53055395 53.00978376 120.94322867 30.26171875 96.4453125 C28.3095112 94.3346356 26.42693722 92.18772443 24.5625 90 C15.57820886 79.68077881 5.44595807 70.67718475 -5.25 62.1875 C-5.85303955 61.70667969 -6.4560791 61.22585937 -7.07739258 60.73046875 C-14.91530246 54.57468735 -21.33874308 54.34292805 -31 54 C-31.74830078 53.97131836 -32.49660156 53.94263672 -33.26757812 53.91308594 C-64.65960237 52.86491607 -93.98367644 62.48338134 -118 83 Z " fill="#000000" transform="translate(821,181)"/>
<path d="M0 0 C14.52 0 29.04 0 44 0 C44 41.25 44 82.5 44 125 C85.25 125 126.5 125 169 125 C169 83.75 169 42.5 169 0 C183.85 0 198.7 0 214 0 C214 98.67 214 197.34 214 299 C199.48 299 184.96 299 170 299 C170 256.43 170 213.86 170 170 C128.42 170 86.84 170 44 170 C44 212.57 44 255.14 44 299 C29.48 299 14.96 299 0 299 C0 200.33 0 101.66 0 0 Z " fill="#000000" transform="translate(375,217)"/>
<path d="M0 0 C15.32872309 11.95952777 23.56380243 29.47563282 26 48.57421875 C33.09497665 110.81243163 12.10683684 166.92817477 -24.99609375 216.31738281 C-27.19189772 219.27164866 -29.31308827 222.27821854 -31.44140625 225.28125 C-32.66497203 226.99361573 -33.8904838 228.70456996 -35.11669922 230.41503906 C-35.91853105 231.5370162 -36.7170238 232.66138695 -37.51220703 233.78808594 C-45.72734303 245.40387459 -45.72734303 245.40387459 -52.31640625 249.09375 C-53.30640625 249.09375 -54.29640625 249.09375 -55.31640625 249.09375 C-55.55762207 247.92618164 -55.79883789 246.75861328 -56.04736328 245.55566406 C-56.96668132 241.11790653 -57.89779281 236.6826851 -58.83203125 232.24804688 C-59.23063258 230.3483027 -59.62626254 228.44793203 -60.01855469 226.546875 C-63.50894013 209.64982958 -67.56196231 192.82446107 -74.19140625 176.84375 C-74.69329468 175.61338013 -74.69329468 175.61338013 -75.20532227 174.3581543 C-78.50991177 166.39207794 -82.31029028 158.72552335 -86.31640625 151.09375 C-87.03429576 149.70335291 -87.75173488 148.3127232 -88.46875 146.921875 C-91.85365156 140.40427436 -95.33717167 133.99302013 -99.15429688 127.71728516 C-113.43999202 104.14805595 -120.69940539 77.46104733 -114.4140625 50.0390625 C-109.3738552 30.71586086 -97.34176448 14.51926503 -80.31640625 4.09375 C-54.59397666 -10.67350485 -25.96408734 -18.48174079 0 0 Z M-71.31640625 11.09375 C-75.77371755 16.37458302 -78.59296139 22.5908874 -78.69140625 29.53125 C-78.71976563 30.43746094 -78.748125 31.34367187 -78.77734375 32.27734375 C-77.78018474 38.37015433 -73.32472239 42.26128157 -69.00390625 46.34375 C-55.41042228 59.60976176 -47.67989155 76.08496117 -47.13623047 95.21313477 C-47.1220227 96.67458158 -47.11744619 98.13614493 -47.12109375 99.59765625 C-47.12246338 100.40752487 -47.12383301 101.21739349 -47.12524414 102.05180359 C-47.24730681 113.92190807 -48.51154824 125.73174427 -49.60742188 137.54272461 C-51.4386994 157.48901189 -51.9191789 177.11633372 -50.31640625 197.09375 C-47.55460684 194.33195059 -47.37658402 191.32395898 -46.6953125 187.61328125 C-46.47846298 186.47936447 -46.47846298 186.47936447 -46.25723267 185.32254028 C-45.7884185 182.85209866 -45.33257537 180.37951487 -44.87890625 177.90625 C-44.64405014 176.64133224 -44.64405014 176.64133224 -44.40444946 175.3508606 C-35.19973928 125.688197 -23.78516127 54.2825007 -53.31640625 9.09375 C-55.16166031 6.72074863 -55.16166031 6.72074863 -57.31640625 5.09375 C-63.09603477 5.09375 -66.79238861 7.62558089 -71.31640625 11.09375 Z " fill="#000000" transform="translate(1015.31640625,458.90625)"/>
<path d="M0 0 C13.47596385 8.32908649 27.04370676 20.83643416 35.84594727 34.03979492 C36.22094727 36.53979492 36.22094727 36.53979492 35.84594727 39.03979492 C32.87442932 41.77303076 29.77828444 42.93443405 25.97094727 44.16479492 C24.96290039 44.49737305 23.95485352 44.82995117 22.91625977 45.17260742 C13.11801227 47.94005137 3.0892414 47.23571344 -6.96801758 46.6796875 C-25.34614729 45.67581063 -43.75528347 45.95192424 -62.15405273 46.03979492 C-61.14616699 46.37712646 -60.13828125 46.71445801 -59.09985352 47.06201172 C-55.31397021 48.33130218 -51.53142829 49.61031382 -47.74975586 50.89208984 C-46.12140168 51.44254435 -44.49218608 51.9904581 -42.86206055 52.53564453 C-19.93038726 60.2100174 -19.93038726 60.2100174 -11.09155273 67.78979492 C-10.17245117 68.56838867 -9.25334961 69.34698242 -8.30639648 70.14916992 C-5.17294938 72.90159896 -5.17294938 72.90159896 -4.82983398 75.41088867 C-5.15405273 78.03979492 -5.15405273 78.03979492 -6.88452148 79.69995117 C-13.74052704 83.61299727 -20.56639952 85.97247947 -28.15405273 88.03979492 C-69.44167198 99.30804072 -103.01774849 116.94389005 -135.15405273 145.03979492 C-136.24145752 145.99039795 -136.24145752 145.99039795 -137.35083008 146.96020508 C-139.28582083 148.65273711 -141.2202209 150.34593899 -143.15405273 152.03979492 C-142.02999023 151.52932617 -140.90592773 151.01885742 -139.74780273 150.49291992 C-122.28810259 142.84479464 -104.12849714 137.6793516 -85.84790039 132.40405273 C-81.72373765 131.21134007 -77.61566577 129.97276786 -73.50952148 128.71948242 C-48.52244263 121.19899355 -48.52244263 121.19899355 -38.96655273 125.46166992 C-31.89799737 129.42791488 -31.89799737 129.42791488 -30.02905273 133.47729492 C-30.15405273 136.03979492 -30.15405273 136.03979492 -32.14624023 138.46166992 C-35.71654384 141.52193015 -39.08118383 143.09641423 -43.40405273 144.85229492 C-44.28971924 145.22209473 -45.17538574 145.59189453 -46.08789062 145.97290039 C-60.34797551 151.85845807 -74.77321985 157.35060478 -89.15525818 162.92897034 C-97.29863904 166.0902049 -105.42548933 169.29236889 -113.54788208 172.50708008 C-127.89102524 178.18334573 -142.2429477 183.83729841 -156.60391235 189.46832275 C-158.60760744 190.25430802 -160.61101433 191.04102847 -162.61410522 191.82855225 C-196.54578151 205.16645162 -196.54578151 205.16645162 -206.34155273 205.22729492 C-207.38698242 205.24147461 -208.43241211 205.2556543 -209.50952148 205.27026367 C-212.15405273 205.03979492 -212.15405273 205.03979492 -214.15405273 203.03979492 C-213.86549775 198.00857976 -211.8781855 193.93766228 -209.59155273 189.53979492 C-209.05473877 188.49202881 -209.05473877 188.49202881 -208.50708008 187.4230957 C-207.40334185 185.28765473 -206.28305332 183.16197647 -205.15405273 181.03979492 C-204.82453613 180.41943359 -204.49501953 179.79907227 -204.15551758 179.15991211 C-193.11619295 158.61090946 -178.08131466 138.98441257 -160.15405273 124.03979492 C-159.22206055 123.21995117 -158.29006836 122.40010742 -157.32983398 121.55541992 C-139.3200767 105.78307547 -118.7819513 94.23457834 -97.53125 83.41723633 C-96.50314209 82.89178223 -95.47503418 82.36632812 -94.41577148 81.82495117 C-93.03844849 81.12704468 -93.03844849 81.12704468 -91.63330078 80.41503906 C-89.2968017 79.11897808 -87.24432699 77.69827256 -85.15405273 76.03979492 C-98.38095229 72.94227292 -111.37388833 71.07934365 -124.90405273 69.97729492 C-126.81014192 69.8123206 -128.71614666 69.64636807 -130.62207031 69.47949219 C-140.19887293 68.65100951 -149.78063719 67.90950549 -159.36889648 67.22729492 C-160.25946747 67.16288712 -161.15003845 67.09847931 -162.06759644 67.03211975 C-166.28730072 66.72727336 -170.50700246 66.43393847 -174.72924805 66.16650391 C-182.26434888 65.65787793 -189.09587248 64.95179843 -196.15405273 62.03979492 C-196.15405273 57.83461582 -195.61278713 56.61780586 -192.87573242 53.56567383 C-189.44903736 50.52868516 -185.38300454 48.68963188 -181.27905273 46.72729492 C-179.82789063 46.02117065 -179.82789063 46.02117065 -178.34741211 45.30078125 C-160.84569226 36.93217198 -143.00609095 30.57392046 -124.15405273 26.03979492 C-123.03571045 25.75628174 -123.03571045 25.75628174 -121.89477539 25.46704102 C-105.3585319 21.32643447 -88.2421184 20.30894145 -71.31674194 18.74313354 C-63.57294296 18.01272681 -55.86462225 17.06098243 -48.15405273 16.03979492 C-48.8462793 15.21125 -48.8462793 15.21125 -49.55249023 14.3659668 C-52.06407821 11.30611755 -53.94034614 8.70762802 -55.15405273 4.91479492 C-53.39887022 -0.13135482 -48.74314608 -1.70056852 -44.15405273 -3.96020508 C-43.39737305 -4.37786133 -42.64069336 -4.79551758 -41.86108398 -5.22583008 C-27.53695803 -12.22764035 -12.87530248 -7.63819343 0 0 Z " fill="#000000" transform="translate(702.154052734375,7.960205078125)"/>
<path d="M0 0 C16.63044858 12.9393885 31.25222469 28.55014206 43.35595703 45.74951172 C43.79166016 46.35649902 44.22736328 46.96348633 44.67626953 47.58886719 C58.14075092 66.42778306 81.18986473 99.69678552 77.35595703 123.74951172 C73.05893813 129.79219455 65.44407884 133.87717766 58.35595703 135.74951172 C55.32977921 136.04593195 52.3323664 136.07447648 49.29345703 136.06201172 C48.10913086 136.08618164 48.10913086 136.08618164 46.90087891 136.11083984 C42.24585142 136.11474179 38.99047188 135.94309756 35.35595703 132.74951172 C31.11913051 127.33921068 28.82445079 121.22544748 26.54345703 114.81201172 C18.4387808 92.89979556 7.63916405 73.24464484 -6.64404297 54.74951172 C-7.68238281 53.37279297 -7.68238281 53.37279297 -8.74169922 51.96826172 C-33.17594412 20.70749367 -67.05252067 -0.75055961 -105.67529297 -9.51220703 C-107.64404297 -10.25048828 -107.64404297 -10.25048828 -109.64404297 -13.25048828 C-109.54349257 -17.7752562 -108.15849726 -20.36051895 -105.22436523 -23.75463867 C-102.41594031 -26.41294541 -99.11940608 -27.93751863 -95.64404297 -29.56298828 C-94.94537109 -29.90910156 -94.24669922 -30.25521484 -93.52685547 -30.61181641 C-64.45653904 -44.68075256 -22.62198346 -17.2066824 0 0 Z " fill="#000000" transform="translate(861.64404296875,71.25048828125)"/>
<path d="M0 0 C5.53860056 3.86119582 11.56928213 9.17269015 13.73828125 15.6796875 C12.990625 16.04320312 12.24296875 16.40671875 11.47265625 16.78125 C3.57544144 20.64002806 3.57544144 20.64002806 -1.26171875 27.6796875 C-1.90682363 32.01110598 -1.75195963 35.49278852 -0.07421875 39.5546875 C4.47981853 44.89390362 10.11438195 45.58642257 16.73828125 46.6796875 C18.32825904 52.99543263 16.61178865 57.4968539 13.36328125 63.015625 C6.94247044 72.06032484 -3.4035142 78.44999543 -14.26171875 80.6796875 C-26.63724434 82.01892861 -37.65477644 80.99491664 -47.94921875 73.4921875 C-58.28194499 64.76759575 -65.26200631 54.82402294 -66.5 41.0234375 C-66.82508773 28.56744438 -63.17783265 17.37843774 -55.26171875 7.6796875 C-40.65329125 -6.68687861 -18.07039482 -10.54886606 0 0 Z " fill="#000000" transform="translate(824.26171875,328.3203125)"/>
<path d="M0 0 C9.92920173 11.80263602 16.69245819 25.78356742 22.5625 39.9375 C23.06265625 41.13246094 23.5628125 42.32742188 24.078125 43.55859375 C28.09168409 53.49902503 31.09695586 63.56459666 31.6875 74.3125 C31.75324219 75.40175781 31.81898437 76.49101562 31.88671875 77.61328125 C31.92410156 78.40089844 31.96148438 79.18851562 32 80 C29.67752267 77.89479464 28.42663841 76.11703219 27.28930664 73.20410156 C26.98751495 72.4424469 26.68572327 71.68079224 26.37478638 70.89605713 C26.05645844 70.06926453 25.73813049 69.24247192 25.41015625 68.390625 C25.06910858 67.52338806 24.72806091 66.65615112 24.37667847 65.76263428 C23.26421392 62.9280493 22.16311438 60.08920486 21.0625 57.25 C20.30144495 55.30185575 19.53980427 53.35394018 18.77758789 51.40625 C17.2433156 47.48158039 15.71392444 43.55506074 14.18847656 39.62695312 C12.5035148 35.28965811 10.80743444 30.95690073 9.10322571 26.62713623 C7.97153692 23.75093555 6.84431167 20.87300275 5.71847534 17.99450684 C5.19977935 16.66982648 4.67970868 15.34568354 4.15823364 14.02209473 C3.44298928 12.20416869 2.73495934 10.38340905 2.02734375 8.5625 C1.63281006 7.55316406 1.23827637 6.54382813 0.83178711 5.50390625 C0 3 0 3 0 0 Z " fill="#000000" transform="translate(1035,295)"/>
<path d="M0 0 C1.32 0 2.64 0 4 0 C4 2.97 4 5.94 4 9 C1.49701566 6.06171403 0.53069061 3.82097239 0 0 Z " fill="#000000" transform="translate(1003,215)"/>
<path d="" fill="#000000" transform="translate(0,0)"/>
</svg>
